<svg width="107" height="84" viewBox="0 0 107 84" fill="none" xmlns="http://www.w3.org/2000/svg">
<path d="M80.22 35.6041H75V24.9141C75 19.8167 72.9751 14.928 69.3706 11.3235C65.7662 7.7191 60.8775 5.69414 55.78 5.69414C50.6825 5.69414 45.7939 7.7191 42.1894 11.3235C38.585 14.928 36.56 19.8167 36.56 24.9141V35.6041H31.39V24.9141C31.3243 21.6663 31.9072 18.4381 33.1046 15.4184C34.3021 12.3986 36.09 9.64819 38.3636 7.32805C40.6373 5.00791 43.351 3.16473 46.3459 1.90643C49.3407 0.648127 52.5565 0 55.805 0C59.0535 0 62.2693 0.648127 65.2642 1.90643C68.259 3.16473 70.9727 5.00791 73.2464 7.32805C75.52 9.64819 77.3079 12.3986 78.5054 15.4184C79.7028 18.4381 80.2857 21.6663 80.22 24.9141V35.6041Z" fill="#A6CC41"/>
<path d="M39.3101 44.7841C43.3998 40.1274 48.4979 36.4649 54.2163 34.0753C59.9348 31.6857 66.123 30.6319 72.3101 30.9941C93.8201 31.9941 106.2 21.3141 106.2 21.3141C106.2 21.3141 111.09 36.9541 94.8001 44.7841C78.5101 52.6141 49.0001 37.2441 39.3101 44.7841Z" fill="#5EA5C8"/>
<path d="M52.4399 61.3341C52.4399 61.3341 52.4399 45.3341 79.8499 48.8441C100.02 51.4241 105.33 41.0241 105.33 41.0241C105.33 41.0241 104.81 61.6941 99.4499 68.4941C89.4099 81.0741 60.4999 54.4941 52.4399 61.3341Z" fill="#5EA5C8"/>
<path d="M1.38989 28.5841C1.38989 28.5841 26.4899 19.9541 53.3899 43.8141C75.5799 63.4941 84.9999 72.9441 99.4499 68.4941C99.4499 68.4941 93.8699 83.7741 67.9999 83.1041C38.6199 82.3041 25.2399 29.5441 1.38989 28.5841Z" fill="#A6CC41"/>
<path d="M0 39.2941C3.3776 39.0539 6.76898 39.4968 9.9716 40.5964C13.1742 41.696 16.1224 43.4298 18.64 45.6941C27 53.3641 34.77 76.0641 51.74 79.5741C51.74 79.5741 32.82 84.6941 19.74 77.3441C6.66 69.9941 13.35 41.8541 0 39.2941Z" fill="#A6CC41"/>
</svg>
