<svg width="239" height="83" viewBox="0 0 239 83" fill="none" xmlns="http://www.w3.org/2000/svg">
<g clip-path="url(#clip0_89_516)">
<path d="M134.912 51.1837H132.83C132.707 50.585 132.492 50.0591 132.184 49.6059C131.882 49.1527 131.513 48.7723 131.077 48.4646C130.646 48.1512 130.167 47.9163 129.641 47.7596C129.116 47.603 128.567 47.5246 127.997 47.5246C126.956 47.5246 126.013 47.7876 125.168 48.3135C124.329 48.8394 123.661 49.6143 123.163 50.6382C122.67 51.662 122.424 52.9181 122.424 54.4063C122.424 55.8945 122.67 57.1506 123.163 58.1744C123.661 59.1983 124.329 59.9732 125.168 60.4991C126.013 61.025 126.956 61.288 127.997 61.288C128.567 61.288 129.116 61.2096 129.641 61.053C130.167 60.8963 130.646 60.6641 131.077 60.3564C131.513 60.0431 131.882 59.6599 132.184 59.2067C132.492 58.7479 132.707 58.222 132.83 57.6289H134.912C134.755 58.5073 134.47 59.2934 134.056 59.9872C133.642 60.6809 133.127 61.2712 132.512 61.7579C131.896 62.2391 131.205 62.6056 130.439 62.8573C129.678 63.1091 128.864 63.235 127.997 63.235C126.531 63.235 125.227 62.8769 124.086 62.1608C122.944 61.4446 122.046 60.4264 121.392 59.106C120.737 57.7856 120.41 56.219 120.41 54.4063C120.41 52.5936 120.737 51.027 121.392 49.7066C122.046 48.3862 122.944 47.368 124.086 46.6518C125.227 45.9357 126.531 45.5776 127.997 45.5776C128.864 45.5776 129.678 45.7035 130.439 45.9553C131.205 46.207 131.896 46.5763 132.512 47.063C133.127 47.5442 133.642 48.1317 134.056 48.8254C134.47 49.5136 134.755 50.2997 134.912 51.1837ZM140.065 55.0856V63H138.044V45.4582H140.065V51.8993H140.237C140.545 51.2198 141.007 50.6802 141.624 50.2805C142.247 49.875 143.075 49.6723 144.108 49.6723C145.005 49.6723 145.79 49.8522 146.464 50.2119C147.137 50.566 147.66 51.1113 148.031 51.8479C148.408 52.5788 148.596 53.5096 148.596 54.6402V63H146.575V54.7773C146.575 53.7323 146.304 52.9243 145.761 52.3533C145.224 51.7765 144.479 51.4882 143.526 51.4882C142.863 51.4882 142.269 51.6281 141.744 51.9079C141.224 52.1877 140.813 52.596 140.511 53.1327C140.214 53.6695 140.065 54.3205 140.065 55.0856ZM157.81 63.2741C156.543 63.2741 155.449 62.9943 154.53 62.4347C153.616 61.8694 152.911 61.0814 152.414 60.0707C151.923 59.0542 151.678 57.8722 151.678 56.5246C151.678 55.177 151.923 53.9893 152.414 52.9614C152.911 51.9279 153.602 51.1227 154.487 50.546C155.378 49.9636 156.417 49.6723 157.605 49.6723C158.29 49.6723 158.967 49.7865 159.635 50.0149C160.303 50.2434 160.911 50.6145 161.459 51.1284C162.007 51.6366 162.444 52.3105 162.77 53.1499C163.095 53.9893 163.258 55.0228 163.258 56.2505V57.107H153.117V55.3597H161.202C161.202 54.6174 161.054 53.955 160.757 53.3726C160.466 52.7901 160.049 52.3304 159.506 51.9935C158.97 51.6566 158.336 51.4882 157.605 51.4882C156.8 51.4882 156.103 51.688 155.515 52.0878C154.933 52.4818 154.484 52.9957 154.17 53.6295C153.856 54.2634 153.699 54.9429 153.699 55.6681V56.833C153.699 57.8265 153.87 58.6688 154.213 59.3597C154.561 60.045 155.044 60.5674 155.661 60.9272C156.277 61.2812 156.994 61.4582 157.81 61.4582C158.342 61.4582 158.821 61.384 159.249 61.2355C159.683 61.0814 160.057 60.853 160.372 60.5503C160.686 60.242 160.928 59.8594 161.1 59.4026L163.052 59.9507C162.847 60.6131 162.501 61.1956 162.016 61.6981C161.531 62.1949 160.931 62.5832 160.217 62.863C159.504 63.137 158.701 63.2741 157.81 63.2741ZM166.333 63V49.8436H168.286V51.8308H168.423C168.663 51.1798 169.097 50.6516 169.725 50.2462C170.353 49.8408 171.061 49.6381 171.849 49.6381C171.998 49.6381 172.183 49.6409 172.406 49.6466C172.629 49.6523 172.797 49.6609 172.911 49.6723V51.728C172.843 51.7109 172.686 51.6852 172.44 51.6509C172.2 51.611 171.946 51.591 171.678 51.591C171.038 51.591 170.467 51.7252 169.965 51.9935C169.468 52.2562 169.074 52.6217 168.783 53.0899C168.497 53.5524 168.354 54.0806 168.354 54.6745V63H166.333ZM175.307 63V49.8436H177.329V63H175.307ZM176.335 47.6509C175.941 47.6509 175.601 47.5167 175.316 47.2483C175.036 46.98 174.896 46.6573 174.896 46.2805C174.896 45.9036 175.036 45.581 175.316 45.3126C175.601 45.0442 175.941 44.91 176.335 44.91C176.729 44.91 177.066 45.0442 177.346 45.3126C177.631 45.581 177.774 45.9036 177.774 46.2805C177.774 46.6573 177.631 46.98 177.346 47.2483C177.066 47.5167 176.729 47.6509 176.335 47.6509ZM184.903 63.3084C184.069 63.3084 183.312 63.1513 182.633 62.8373C181.953 62.5175 181.414 62.0578 181.014 61.4582C180.614 60.853 180.414 60.122 180.414 59.2655C180.414 58.5118 180.563 57.9008 180.86 57.4325C181.157 56.9586 181.554 56.5874 182.05 56.319C182.547 56.0507 183.095 55.8508 183.695 55.7195C184.3 55.5824 184.908 55.4739 185.519 55.394C186.319 55.2912 186.967 55.2141 187.464 55.1627C187.966 55.1056 188.332 55.0114 188.56 54.8801C188.794 54.7487 188.911 54.5203 188.911 54.1948V54.1263C188.911 53.2812 188.68 52.6245 188.217 52.1563C187.761 51.688 187.067 51.4539 186.136 51.4539C185.171 51.4539 184.414 51.6652 183.866 52.0878C183.318 52.5103 182.933 52.9614 182.71 53.4411L180.791 52.7559C181.134 51.9564 181.591 51.334 182.162 50.8886C182.738 50.4375 183.367 50.1234 184.046 49.9464C184.731 49.7637 185.405 49.6723 186.068 49.6723C186.49 49.6723 186.975 49.7237 187.524 49.8265C188.078 49.9236 188.611 50.1263 189.125 50.4346C189.645 50.743 190.076 51.2084 190.419 51.8308C190.761 52.4532 190.933 53.2869 190.933 54.3319V63H188.911V61.2184H188.808C188.671 61.5039 188.443 61.8094 188.123 62.1349C187.803 62.4604 187.378 62.7373 186.847 62.9657C186.316 63.1941 185.668 63.3084 184.903 63.3084ZM185.211 61.4925C186.01 61.4925 186.684 61.3355 187.232 61.0214C187.786 60.7073 188.203 60.3019 188.483 59.8051C188.768 59.3083 188.911 58.7859 188.911 58.2377V56.3876C188.826 56.4903 188.637 56.5846 188.346 56.6702C188.06 56.7502 187.729 56.8215 187.352 56.8843C186.981 56.9414 186.619 56.9928 186.265 57.0385C185.916 57.0785 185.634 57.1128 185.417 57.1413C184.891 57.2098 184.4 57.3212 183.943 57.4754C183.492 57.6238 183.127 57.8494 182.847 58.152C182.573 58.4489 182.436 58.8544 182.436 59.3683C182.436 60.0707 182.696 60.6017 183.215 60.9614C183.741 61.3155 184.406 61.4925 185.211 61.4925Z" fill="#A6CC41"/>
<path d="M200.31 63H194.896V45.4582H200.549C202.251 45.4582 203.707 45.8094 204.918 46.5117C206.128 47.2084 207.056 48.2105 207.701 49.5182C208.347 50.8201 208.669 52.379 208.669 54.1948C208.669 56.0221 208.344 57.5953 207.693 58.9143C207.042 60.2277 206.094 61.2384 204.849 61.9465C203.604 62.6488 202.091 63 200.31 63ZM197.02 61.1156H200.173C201.623 61.1156 202.825 60.8358 203.779 60.2762C204.732 59.7166 205.443 58.92 205.911 57.8865C206.38 56.8529 206.614 55.6224 206.614 54.1948C206.614 52.7787 206.382 51.5596 205.92 50.5374C205.457 49.5096 204.766 48.7216 203.847 48.1734C202.928 47.6195 201.783 47.3426 200.412 47.3426H197.02V61.1156ZM211.65 63V61.4582L221.106 47.3426H211.547V45.4582H223.642V46.9999L214.185 61.1156H223.744V63H211.65Z" fill="#5EA1D8"/>
<path d="M80.22 35.11H75V24.42C75 19.3225 72.9751 14.4339 69.3706 10.8294C65.7662 7.22496 60.8775 5.2 55.78 5.2C50.6825 5.2 45.7939 7.22496 42.1894 10.8294C38.585 14.4339 36.56 19.3225 36.56 24.42V35.11H31.39V24.42C31.3243 21.1722 31.9072 17.9439 33.1046 14.9242C34.3021 11.9045 36.09 9.15405 38.3636 6.83391C40.6373 4.51377 43.351 2.67059 46.3459 1.41229C49.3407 0.153986 52.5565 -0.494141 55.805 -0.494141C59.0535 -0.494141 62.2693 0.153986 65.2642 1.41229C68.259 2.67059 70.9727 4.51377 73.2464 6.83391C75.52 9.15405 77.3079 11.9045 78.5054 14.9242C79.7028 17.9439 80.2857 21.1722 80.22 24.42V35.11Z" fill="#A6CC41"/>
<path d="M39.3101 44.29C43.3998 39.6333 48.4979 35.9708 54.2163 33.5812C59.9348 31.1915 66.123 30.1378 72.3101 30.5C93.8201 31.5 106.2 20.82 106.2 20.82C106.2 20.82 111.09 36.46 94.8001 44.29C78.5101 52.12 49.0001 36.75 39.3101 44.29Z" fill="#5EA5C8"/>
<path d="M52.4399 60.84C52.4399 60.84 52.4399 44.84 79.8499 48.35C100.02 50.93 105.33 40.53 105.33 40.53C105.33 40.53 104.81 61.2 99.4499 68C89.4099 80.58 60.4999 54 52.4399 60.84Z" fill="#5EA5C8"/>
<path d="M1.38989 28.09C1.38989 28.09 26.4899 19.46 53.3899 43.32C75.5799 63 84.9999 72.45 99.4499 68C99.4499 68 93.8699 83.28 67.9999 82.61C38.6199 81.81 25.2399 29.05 1.38989 28.09Z" fill="#A6CC41"/>
<path d="M0 38.8C3.3776 38.5597 6.76898 39.0026 9.9716 40.1022C13.1742 41.2018 16.1224 42.9356 18.64 45.2C27 52.87 34.77 75.57 51.74 79.08C51.74 79.08 32.82 84.2 19.74 76.85C6.66 69.5 13.35 41.36 0 38.8Z" fill="#A6CC41"/>
</g>
<defs>
<clipPath id="clip0_89_516">
<rect width="238.32" height="82.59" fill="white"/>
</clipPath>
</defs>
</svg>
